
<svg width="36" height="36" viewBox="0 0 36 36" fill="none" xmlns="http://www.w3.org/2000/svg">
<g clip-path="url(#clip0_3_369)">
<path d="M10.8 7.2C4.8375 7.2 0 12.0375 0 18C0 23.9625 4.8375 28.8 10.8 28.8H25.2C31.1625 28.8 36 23.9625 36 18C36 12.0375 31.1625 7.2 25.2 7.2H10.8ZM27.9 13.05C28.4967 13.05 29.069 13.2871 29.491 13.709C29.9129 14.131 30.15 14.7033 30.15 15.3C30.15 15.8967 29.9129 16.469 29.491 16.891C29.069 17.3129 28.4967 17.55 27.9 17.55C27.3033 17.55 26.731 17.3129 26.309 16.891C25.8871 16.469 25.65 15.8967 25.65 15.3C25.65 14.7033 25.8871 14.131 26.309 13.709C26.731 13.2871 27.3033 13.05 27.9 13.05ZM22.05 20.7C22.05 20.1033 22.2871 19.531 22.709 19.109C23.131 18.687 23.7033 18.45 24.3 18.45C24.8967 18.45 25.469 18.687 25.891 19.109C26.3129 19.531 26.55 20.1033 26.55 20.7C26.55 21.2967 26.3129 21.869 25.891 22.291C25.469 22.7129 24.8967 22.95 24.3 22.95C23.7033 22.95 23.131 22.7129 22.709 22.291C22.2871 21.869 22.05 21.2967 22.05 20.7ZM9.45 14.85C9.45 14.1019 10.0519 13.5 10.8 13.5C11.5481 13.5 12.15 14.1019 12.15 14.85V16.65H13.95C14.6981 16.65 15.3 17.2519 15.3 18C15.3 18.7481 14.6981 19.35 13.95 19.35H12.15V21.15C12.15 21.8981 11.5481 22.5 10.8 22.5C10.0519 22.5 9.45 21.8981 9.45 21.15V19.35H7.65C6.90188 19.35 6.3 18.7481 6.3 18C6.3 17.2519 6.90188 16.65 7.65 16.65H9.45V14.85Z" fill="#312E81"/>
</g>
<defs>
<clipPath id="clip0_3_369">
<rect width="36" height="36" fill="white"/>
</clipPath>
</defs>
</svg>
