<svg width="90" height="48" viewBox="0 0 90 48" fill="none" xmlns="http://www.w3.org/2000/svg">
<path d="M0 0H66C79.2548 0 90 10.7452 90 24C90 37.2548 79.2548 48 66 48H0V0Z" fill="#3143A3"/>
<path d="M17.2642 31V16.4545H20.3395V22.456H26.5824V16.4545H29.6506V31H26.5824V24.9915H20.3395V31H17.2642ZM37.0582 31.2131C35.955 31.2131 35.0009 30.9787 34.196 30.5099C33.3958 30.0365 32.7779 29.3783 32.3423 28.5355C31.9067 27.688 31.6889 26.7055 31.6889 25.5881C31.6889 24.4612 31.9067 23.4763 32.3423 22.6335C32.7779 21.786 33.3958 21.1278 34.196 20.6591C35.0009 20.1856 35.955 19.9489 37.0582 19.9489C38.1615 19.9489 39.1132 20.1856 39.9134 20.6591C40.7183 21.1278 41.3385 21.786 41.7741 22.6335C42.2098 23.4763 42.4276 24.4612 42.4276 25.5881C42.4276 26.7055 42.2098 27.688 41.7741 28.5355C41.3385 29.3783 40.7183 30.0365 39.9134 30.5099C39.1132 30.9787 38.1615 31.2131 37.0582 31.2131ZM37.0724 28.8693C37.5743 28.8693 37.9934 28.7273 38.3295 28.4432C38.6657 28.1544 38.919 27.7614 39.0895 27.2642C39.2647 26.767 39.3523 26.2012 39.3523 25.5668C39.3523 24.9323 39.2647 24.3665 39.0895 23.8693C38.919 23.3722 38.6657 22.9792 38.3295 22.6903C37.9934 22.4015 37.5743 22.2571 37.0724 22.2571C36.5658 22.2571 36.1397 22.4015 35.794 22.6903C35.4531 22.9792 35.1951 23.3722 35.0199 23.8693C34.8494 24.3665 34.7642 24.9323 34.7642 25.5668C34.7642 26.2012 34.8494 26.767 35.0199 27.2642C35.1951 27.7614 35.4531 28.1544 35.794 28.4432C36.1397 28.7273 36.5658 28.8693 37.0724 28.8693ZM44.3949 31V20.0909H47.2784V22.0156H47.4062C47.6335 21.3764 48.0123 20.8722 48.5426 20.5028C49.0729 20.1335 49.7074 19.9489 50.446 19.9489C51.1941 19.9489 51.831 20.1359 52.3565 20.5099C52.8821 20.8793 53.2325 21.3812 53.4077 22.0156H53.5213C53.7438 21.3906 54.1463 20.8911 54.7287 20.517C55.3158 20.1383 56.0095 19.9489 56.8097 19.9489C57.8277 19.9489 58.6539 20.2732 59.2884 20.9219C59.9276 21.5658 60.2472 22.4796 60.2472 23.6634V31H57.2287V24.2599C57.2287 23.6539 57.0677 23.1993 56.7457 22.8963C56.4238 22.5933 56.0213 22.4418 55.5384 22.4418C54.9891 22.4418 54.5606 22.617 54.2528 22.9673C53.9451 23.313 53.7912 23.7699 53.7912 24.3381V31H50.858V24.196C50.858 23.661 50.7041 23.2348 50.3963 22.9176C50.0933 22.6004 49.6932 22.4418 49.196 22.4418C48.8598 22.4418 48.5568 22.527 48.2869 22.6974C48.0218 22.8632 47.8111 23.0975 47.6548 23.4006C47.4986 23.6989 47.4205 24.0492 47.4205 24.4517V31H44.3949ZM67.6087 31.2131C66.4865 31.2131 65.5206 30.9858 64.7109 30.5312C63.906 30.072 63.2857 29.4233 62.8501 28.5852C62.4145 27.7424 62.1967 26.7457 62.1967 25.5952C62.1967 24.473 62.4145 23.4882 62.8501 22.6406C63.2857 21.7931 63.8989 21.1326 64.6896 20.6591C65.4851 20.1856 66.4179 19.9489 67.4879 19.9489C68.2076 19.9489 68.8776 20.0649 69.4979 20.2969C70.1229 20.5241 70.6674 20.8674 71.1314 21.3267C71.6001 21.786 71.9647 22.3636 72.2251 23.0597C72.4856 23.7509 72.6158 24.5606 72.6158 25.4886V26.3196H63.4041V24.4446H69.7678C69.7678 24.009 69.6731 23.6231 69.4837 23.2869C69.2943 22.9508 69.0315 22.688 68.6953 22.4986C68.3639 22.3045 67.978 22.2074 67.5376 22.2074C67.0784 22.2074 66.6712 22.3139 66.3161 22.527C65.9657 22.7353 65.6911 23.017 65.4922 23.3722C65.2933 23.7225 65.1915 24.1132 65.1868 24.544V26.3267C65.1868 26.8665 65.2862 27.3329 65.4851 27.7259C65.6887 28.1188 65.9751 28.4219 66.3445 28.6349C66.7138 28.848 67.1518 28.9545 67.6584 28.9545C67.9946 28.9545 68.3023 28.9072 68.5817 28.8125C68.861 28.7178 69.1001 28.5758 69.299 28.3864C69.4979 28.197 69.6494 27.965 69.7536 27.6903L72.5518 27.875C72.4098 28.5473 72.1186 29.1345 71.6783 29.6364C71.2427 30.1335 70.6792 30.5218 69.9879 30.8011C69.3014 31.0758 68.5083 31.2131 67.6087 31.2131Z" fill="#E0F2FE"/>
</svg>
