<svg
          width="24"
          height="25"
          viewBox="0 0 24 25"
          fill="none"
          xmlns="http://www.w3.org/2000/svg"
        >
          <path
            d="M12 22.5C15.719 22.5 19.063 20.465 20.809 17.186L13 12.5L20.809 7.814C19.063 4.535 15.719 2.5 12 2.5C6.486 2.5 2 6.986 2 12.5C2 18.014 6.486 22.5 12 22.5ZM11.5 6.5C11.898 6.50013 12.2796 6.65835 12.5609 6.93984C12.8422 7.22133 13.0001 7.60304 13 8.001C12.9999 8.39896 12.8417 8.78056 12.5602 9.06187C12.2787 9.34317 11.897 9.50113 11.499 9.501C11.101 9.50087 10.7194 9.34265 10.4381 9.06116C10.1568 8.77967 9.99887 8.39796 9.999 8C9.99913 7.60204 10.1573 7.22044 10.4388 6.93913C10.7203 6.65783 11.102 6.49987 11.5 6.5Z"
            fill="#0C4A6E"
          />
        </svg>