<svg width="24" height="25" viewBox="0 0 24 25" fill="none" xmlns="http://www.w3.org/2000/svg">
<g clip-path="url(#clip0_14_202)">
<path d="M12 3.5C10.22 3.5 8.47991 4.02784 6.99987 5.01677C5.51983 6.00571 4.36628 7.41131 3.68509 9.05585C3.0039 10.7004 2.82567 12.51 3.17294 14.2558C3.5202 16.0016 4.37737 17.6053 5.63604 18.864C6.89472 20.1226 8.49836 20.9798 10.2442 21.3271C11.99 21.6743 13.7996 21.4961 15.4442 20.8149C17.0887 20.1337 18.4943 18.9802 19.4832 17.5001C20.4722 16.0201 21 14.28 21 12.5C21 12.04 20.96 11.58 20.9 11.14C20.4003 11.8407 19.7401 12.4115 18.9746 12.8047C18.2091 13.1978 17.3606 13.402 16.5 13.4C15.3552 13.4 14.24 13.0364 13.3152 12.3617C12.3904 11.6869 11.7038 10.7358 11.3545 9.64561C11.0052 8.55541 11.0112 7.38243 11.3717 6.29586C11.7321 5.20928 12.4284 4.26528 13.36 3.6C12.92 3.54 12.46 3.5 12 3.5Z" fill="#E0F2FE"/>
</g>
<defs>
<clipPath id="clip0_14_202">
<rect width="24" height="24" fill="white" transform="translate(0 0.5)"/>
</clipPath>
</defs>
</svg>
