<svg width="60" height="60" viewBox="0 0 60 60" fill="none" xmlns="http://www.w3.org/2000/svg">
<rect width="60" height="60" rx="30" fill="#DEE3FD"/>
<path d="M45.3125 16.25H14.6875C14.5156 16.25 14.375 16.3906 14.375 16.5625V19.0625C14.375 19.2344 14.5156 19.375 14.6875 19.375H45.3125C45.4844 19.375 45.625 19.2344 45.625 19.0625V16.5625C45.625 16.3906 45.4844 16.25 45.3125 16.25ZM45.3125 40.625H14.6875C14.5156 40.625 14.375 40.7656 14.375 40.9375V43.4375C14.375 43.6094 14.5156 43.75 14.6875 43.75H45.3125C45.4844 43.75 45.625 43.6094 45.625 43.4375V40.9375C45.625 40.7656 45.4844 40.625 45.3125 40.625ZM45.3125 28.4375H14.6875C14.5156 28.4375 14.375 28.5781 14.375 28.75V31.25C14.375 31.4219 14.5156 31.5625 14.6875 31.5625H45.3125C45.4844 31.5625 45.625 31.4219 45.625 31.25V28.75C45.625 28.5781 45.4844 28.4375 45.3125 28.4375Z" fill="#0C4A6E"/>
</svg>