<svg width="64" height="64" viewBox="0 0 64 64" fill="none" xmlns="http://www.w3.org/2000/svg">
<g clip-path="url(#clip0_72_65)">
<path d="M32 8C27.2533 8 22.6131 9.40758 18.6663 12.0447C14.7195 14.6819 11.6434 18.4302 9.8269 22.8156C8.0104 27.201 7.53512 32.0266 8.46116 36.6822C9.38721 41.3377 11.673 45.6141 15.0294 48.9706C18.3859 52.327 22.6623 54.6128 27.3178 55.5388C31.9734 56.4649 36.799 55.9896 41.1844 54.1731C45.5698 52.3566 49.3181 49.2805 51.9553 45.3337C54.5924 41.3869 56 36.7468 56 32C56 30.7733 55.8933 29.5467 55.7333 28.3733C54.4009 30.2418 52.6403 31.7639 50.599 32.8124C48.5576 33.8609 46.2949 34.4053 44 34.4C40.9472 34.4001 37.9733 33.4305 35.5072 31.6311C33.0411 29.8317 31.2103 27.2955 30.2788 24.3883C29.3473 21.4811 29.3633 18.3531 30.3244 15.4556C31.2856 12.5581 33.1423 10.0407 35.6267 8.26667C34.4533 8.10667 33.2267 8 32 8Z" fill="#E0F2FE"/>
</g>
<defs>
<clipPath id="clip0_72_65">
<rect width="64" height="64" fill="white"/>
</clipPath>
</defs>
</svg>
