<svg width="64" height="64" viewBox="0 0 64 64" fill="none" xmlns="http://www.w3.org/2000/svg">
<g clip-path="url(#clip0_126_140)">
<path d="M32.0001 18.6667C24.6401 18.6667 18.6667 24.64 18.6667 32C18.6667 39.36 24.6401 45.3333 32.0001 45.3333C39.3601 45.3333 45.3334 39.36 45.3334 32C45.3334 24.64 39.3601 18.6667 32.0001 18.6667ZM5.33341 34.6667H10.6667C12.1334 34.6667 13.3334 33.4667 13.3334 32C13.3334 30.5333 12.1334 29.3333 10.6667 29.3333H5.33341C3.86675 29.3333 2.66675 30.5333 2.66675 32C2.66675 33.4667 3.86675 34.6667 5.33341 34.6667ZM53.3334 34.6667H58.6667C60.1334 34.6667 61.3334 33.4667 61.3334 32C61.3334 30.5333 60.1334 29.3333 58.6667 29.3333H53.3334C51.8667 29.3333 50.6667 30.5333 50.6667 32C50.6667 33.4667 51.8667 34.6667 53.3334 34.6667ZM29.3334 5.33333V10.6667C29.3334 12.1333 30.5334 13.3333 32.0001 13.3333C33.4667 13.3333 34.6667 12.1333 34.6667 10.6667V5.33333C34.6667 3.86666 33.4667 2.66666 32.0001 2.66666C30.5334 2.66666 29.3334 3.86666 29.3334 5.33333ZM29.3334 53.3333V58.6667C29.3334 60.1333 30.5334 61.3333 32.0001 61.3333C33.4667 61.3333 34.6667 60.1333 34.6667 58.6667V53.3333C34.6667 51.8667 33.4667 50.6667 32.0001 50.6667C30.5334 50.6667 29.3334 51.8667 29.3334 53.3333ZM15.9734 12.2133C15.7267 11.9661 15.4337 11.77 15.1111 11.6362C14.7885 11.5024 14.4427 11.4335 14.0934 11.4335C13.7442 11.4335 13.3983 11.5024 13.0758 11.6362C12.7532 11.77 12.4601 11.9661 12.2134 12.2133C11.9662 12.46 11.7701 12.7531 11.6363 13.0757C11.5024 13.3983 11.4336 13.7441 11.4336 14.0933C11.4336 14.4426 11.5024 14.7884 11.6363 15.111C11.7701 15.4336 11.9662 15.7266 12.2134 15.9733L15.0401 18.8C16.0801 19.84 17.7867 19.84 18.8001 18.8C19.8134 17.76 19.8401 16.0533 18.8001 15.04L15.9734 12.2133ZM48.9601 45.2C48.7134 44.9528 48.4203 44.7567 48.0977 44.6228C47.7752 44.489 47.4293 44.4202 47.0801 44.4202C46.7308 44.4202 46.385 44.489 46.0624 44.6228C45.7398 44.7567 45.4468 44.9528 45.2001 45.2C44.9529 45.4467 44.7567 45.7397 44.6229 46.0623C44.4891 46.3849 44.4202 46.7308 44.4202 47.08C44.4202 47.4292 44.4891 47.7751 44.6229 48.0977C44.7567 48.4203 44.9529 48.7133 45.2001 48.96L48.0267 51.7867C49.0667 52.8267 50.7734 52.8267 51.7868 51.7867C52.034 51.54 52.2301 51.2469 52.3639 50.9243C52.4977 50.6017 52.5666 50.2559 52.5666 49.9067C52.5666 49.5574 52.4977 49.2116 52.3639 48.889C52.2301 48.5664 52.034 48.2734 51.7868 48.0267L48.9601 45.2ZM51.7868 15.9733C52.034 15.7266 52.2301 15.4336 52.3639 15.111C52.4977 14.7884 52.5666 14.4426 52.5666 14.0933C52.5666 13.7441 52.4977 13.3983 52.3639 13.0757C52.2301 12.7531 52.034 12.46 51.7868 12.2133C51.54 11.9661 51.247 11.77 50.9244 11.6362C50.6018 11.5024 50.256 11.4335 49.9067 11.4335C49.5575 11.4335 49.2117 11.5024 48.8891 11.6362C48.5665 11.77 48.2735 11.9661 48.0267 12.2133L45.2001 15.04C44.1601 16.08 44.1601 17.7867 45.2001 18.8C46.2401 19.8133 47.9468 19.84 48.9601 18.8L51.7868 15.9733ZM18.8001 48.96C19.0473 48.7133 19.2434 48.4203 19.3772 48.0977C19.5111 47.7751 19.5799 47.4292 19.5799 47.08C19.5799 46.7308 19.5111 46.3849 19.3772 46.0623C19.2434 45.7397 19.0473 45.4467 18.8001 45.2C18.5534 44.9528 18.2603 44.7567 17.9377 44.6228C17.6152 44.489 17.2693 44.4202 16.9201 44.4202C16.5708 44.4202 16.225 44.489 15.9024 44.6228C15.5798 44.7567 15.2868 44.9528 15.0401 45.2L12.2134 48.0267C11.1734 49.0667 11.1734 50.7733 12.2134 51.7867C13.2534 52.8 14.9601 52.8267 15.9734 51.7867L18.8001 48.96Z" fill="#0C4A6E"/>
</g>
<defs>
<clipPath id="clip0_126_140">
<rect width="64" height="64" fill="white"/>
</clipPath>
</defs>
</svg>
